<?xml version="1.0" encoding="UTF-8" standalone="no"?>
<!DOCTYPE svg PUBLIC "-//W3C//DTD SVG 1.1//EN"
 "http://www.w3.org/Graphics/SVG/1.1/DTD/svg11.dtd">
<!-- Generated by graphviz version 2.40.1 (20161225.0304)
 -->
<!-- Title: G Pages: 1 -->
<svg width="144pt" height="310pt"
 viewBox="0.00 0.00 144.00 310.40" xmlns="http://www.w3.org/2000/svg" xmlns:xlink="http://www.w3.org/1999/xlink">
<g id="graph0" class="graph" transform="scale(1 1) rotate(0) translate(4 306.4)">
<title>G</title>
<polygon fill="#ffffff" stroke="transparent" points="-4,4 -4,-306.4 140,-306.4 140,4 -4,4"/>
<!-- a -->
<g id="node1" class="node">
<title>a</title>
<ellipse fill="none" stroke="#000000" cx="67" cy="-284.4" rx="27" ry="18"/>
<text text-anchor="middle" x="67" y="-280.2" font-family="Times,serif" font-size="14.00" fill="#000000">a</text>
</g>
<!-- b -->
<g id="node2" class="node">
<title>b</title>
<ellipse fill="none" stroke="#000000" cx="67" cy="-195.6" rx="27" ry="18"/>
<text text-anchor="middle" x="67" y="-191.4" font-family="Times,serif" font-size="14.00" fill="#000000">b</text>
</g>
<!-- a&#45;&#45;b -->
<g id="edge1" class="edge">
<title>a&#45;&#45;b</title>
<path fill="none" stroke="#000000" d="M67,-266.0006C67,-250.6587 67,-228.922 67,-213.672"/>
<text text-anchor="middle" x="70.5" y="-235.8" font-family="Times,serif" font-size="14.00" fill="#000000">3</text>
</g>
<!-- c -->
<g id="node3" class="node">
<title>c</title>
<ellipse fill="none" stroke="#000000" cx="27" cy="-106.8" rx="27" ry="18"/>
<text text-anchor="middle" x="27" y="-102.6" font-family="Times,serif" font-size="14.00" fill="#000000">c</text>
</g>
<!-- a&#45;&#45;c -->
<g id="edge2" class="edge">
<title>a&#45;&#45;c</title>
<path fill="none" stroke="#000000" d="M53.7704,-268.4481C43.3945,-254.8337 29.7754,-234.2348 24,-213.6 15.5509,-183.4123 19.5647,-146.5377 23.2686,-124.961"/>
<text text-anchor="middle" x="27.5" y="-191.4" font-family="Times,serif" font-size="14.00" fill="#000000">5</text>
</g>
<!-- d -->
<g id="node4" class="node">
<title>d</title>
<ellipse fill="none" stroke="#000000" cx="109" cy="-106.8" rx="27" ry="18"/>
<text text-anchor="middle" x="109" y="-102.6" font-family="Times,serif" font-size="14.00" fill="#000000">d</text>
</g>
<!-- a&#45;&#45;d -->
<g id="edge3" class="edge">
<title>a&#45;&#45;d</title>
<path fill="none" stroke="#000000" d="M77.9799,-267.7506C86.4867,-253.8896 97.6891,-233.3052 103,-213.6 111.1673,-183.2965 111.1661,-146.459 110.2219,-124.9208"/>
<text text-anchor="middle" x="112.5" y="-191.4" font-family="Times,serif" font-size="14.00" fill="#000000">2</text>
</g>
<!-- b&#45;&#45;c -->
<g id="edge5" class="edge">
<title>b&#45;&#45;c</title>
<path fill="none" stroke="#000000" d="M59.0973,-178.056C52.0847,-162.4881 41.8939,-139.8644 34.8863,-124.3076"/>
<text text-anchor="middle" x="54.5" y="-147" font-family="Times,serif" font-size="14.00" fill="#000000">4</text>
</g>
<!-- b&#45;&#45;d -->
<g id="edge4" class="edge">
<title>b&#45;&#45;d</title>
<path fill="none" stroke="#000000" d="M75.2978,-178.056C82.7088,-162.387 93.5005,-139.5703 100.8623,-124.0054"/>
<text text-anchor="middle" x="94.5" y="-147" font-family="Times,serif" font-size="14.00" fill="#000000">7</text>
</g>
<!-- e -->
<g id="node5" class="node">
<title>e</title>
<ellipse fill="none" stroke="#000000" cx="27" cy="-18" rx="27" ry="18"/>
<text text-anchor="middle" x="27" y="-13.8" font-family="Times,serif" font-size="14.00" fill="#000000">e</text>
</g>
<!-- c&#45;&#45;e -->
<g id="edge6" class="edge">
<title>c&#45;&#45;e</title>
<path fill="none" stroke="#000000" d="M27,-88.4006C27,-73.0587 27,-51.322 27,-36.072"/>
<text text-anchor="middle" x="30.5" y="-58.2" font-family="Times,serif" font-size="14.00" fill="#000000">5</text>
</g>
</g>
</svg>
