<?xml version="1.0" encoding="UTF-8" standalone="no"?>
<!DOCTYPE svg PUBLIC "-//W3C//DTD SVG 1.1//EN"
 "http://www.w3.org/Graphics/SVG/1.1/DTD/svg11.dtd">
<!-- Generated by graphviz version 2.40.1 (20161225.0304)
 -->
<!-- Title: G Pages: 1 -->
<svg width="134pt" height="310pt"
 viewBox="0.00 0.00 134.00 310.40" xmlns="http://www.w3.org/2000/svg" xmlns:xlink="http://www.w3.org/1999/xlink">
<g id="graph0" class="graph" transform="scale(1 1) rotate(0) translate(4 306.4)">
<title>G</title>
<polygon fill="#ffffff" stroke="transparent" points="-4,4 -4,-306.4 130,-306.4 130,4 -4,4"/>
<!-- a -->
<g id="node1" class="node">
<title>a</title>
<ellipse fill="none" stroke="#000000" cx="81" cy="-284.4" rx="27" ry="18"/>
<text text-anchor="middle" x="81" y="-280.2" font-family="Times,serif" font-size="14.00" fill="#000000">a</text>
</g>
<!-- b -->
<g id="node2" class="node">
<title>b</title>
<ellipse fill="none" stroke="#000000" cx="27" cy="-195.6" rx="27" ry="18"/>
<text text-anchor="middle" x="27" y="-191.4" font-family="Times,serif" font-size="14.00" fill="#000000">b</text>
</g>
<!-- a&#45;&#45;b -->
<g id="edge1" class="edge">
<title>a&#45;&#45;b</title>
<path fill="none" stroke="#000000" d="M70.843,-267.6974C61.2498,-251.9218 46.9333,-228.3792 37.295,-212.5296"/>
<text text-anchor="middle" x="62.5" y="-235.8" font-family="Times,serif" font-size="14.00" fill="#000000">3</text>
</g>
<!-- d -->
<g id="node3" class="node">
<title>d</title>
<ellipse fill="none" stroke="#000000" cx="99" cy="-195.6" rx="27" ry="18"/>
<text text-anchor="middle" x="99" y="-191.4" font-family="Times,serif" font-size="14.00" fill="#000000">d</text>
</g>
<!-- a&#45;&#45;d -->
<g id="edge2" class="edge">
<title>a&#45;&#45;d</title>
<path fill="none" stroke="#000000" d="M84.6426,-266.43C87.7655,-251.0236 92.2415,-228.942 95.3628,-213.5433"/>
<text text-anchor="middle" x="94.5" y="-235.8" font-family="Times,serif" font-size="14.00" fill="#000000">2</text>
</g>
<!-- c -->
<g id="node4" class="node">
<title>c</title>
<ellipse fill="none" stroke="#000000" cx="27" cy="-106.8" rx="27" ry="18"/>
<text text-anchor="middle" x="27" y="-102.6" font-family="Times,serif" font-size="14.00" fill="#000000">c</text>
</g>
<!-- b&#45;&#45;c -->
<g id="edge3" class="edge">
<title>b&#45;&#45;c</title>
<path fill="none" stroke="#000000" d="M27,-177.2006C27,-161.8587 27,-140.122 27,-124.872"/>
<text text-anchor="middle" x="30.5" y="-147" font-family="Times,serif" font-size="14.00" fill="#000000">4</text>
</g>
<!-- e -->
<g id="node5" class="node">
<title>e</title>
<ellipse fill="none" stroke="#000000" cx="27" cy="-18" rx="27" ry="18"/>
<text text-anchor="middle" x="27" y="-13.8" font-family="Times,serif" font-size="14.00" fill="#000000">e</text>
</g>
<!-- c&#45;&#45;e -->
<g id="edge4" class="edge">
<title>c&#45;&#45;e</title>
<path fill="none" stroke="#000000" d="M27,-88.4006C27,-73.0587 27,-51.322 27,-36.072"/>
<text text-anchor="middle" x="30.5" y="-58.2" font-family="Times,serif" font-size="14.00" fill="#000000">5</text>
</g>
</g>
</svg>
