<svg id="a3f3804e-c9c3-42cc-b3c6-fdab30f745a3" data-name="图层 1" xmlns="http://www.w3.org/2000/svg" xmlns:xlink="http://www.w3.org/1999/xlink" viewBox="0 0 2121.85 1920">
  <defs>
    <style>
      .b42669df-2118-46fb-a28a-1fe428413d8c, .bca174a6-1b9f-46af-9706-18277573f75c, .fdaac801-91d5-4d75-97fa-4994aae449b3 {
        fill: none;
      }

      .a25e99ab-7bed-4a5b-b7f7-3736d4839629 {
        clip-path: url(#abe93ae1-1d22-4c94-aa2e-6446de5501fc);
      }

      .fdaac801-91d5-4d75-97fa-4994aae449b3 {
        stroke: #fff;
      }

      .bca174a6-1b9f-46af-9706-18277573f75c, .fdaac801-91d5-4d75-97fa-4994aae449b3 {
        stroke-miterlimit: 10;
        stroke-width: 16px;
      }

      .bca174a6-1b9f-46af-9706-18277573f75c {
        stroke: #fbb03b;
      }
    </style>
    <clipPath id="abe93ae1-1d22-4c94-aa2e-6446de5501fc" transform="translate(101.11)">
      <path class="b42669df-2118-46fb-a28a-1fe428413d8c" d="M1920,0H0V1920H1920Z"/>
    </clipPath>
  </defs>
  <path d="M1919,1V1919H1V1H1919m1-1H0V1920H1920V0Z" transform="translate(101.11)"/>
  <path class="fdaac801-91d5-4d75-97fa-4994aae449b3" d="M-95.5,248c59.69-58.69,160-139.5,298-166,259.94-49.9,359.2,149.3,667,164,297.47,14.2,367.73-164.07,656-143,215.31,15.74,383.08,130.32,490,223" transform="translate(101.11)"/>
  <path class="fdaac801-91d5-4d75-97fa-4994aae449b3" d="M-95.5,648c59.69-58.69,160-139.5,298-166,259.94-49.9,359.2,149.3,667,164,297.47,14.2,367.73-164.07,656-143,215.31,15.74,383.08,130.32,490,223" transform="translate(101.11)"/>
  <path class="fdaac801-91d5-4d75-97fa-4994aae449b3" d="M-95.5,448c59.69-58.69,160-139.5,298-166,259.94-49.9,359.2,149.3,667,164,297.47,14.2,367.73-164.07,656-143,215.31,15.74,383.08,130.32,490,223" transform="translate(101.11)"/>
  <polygon class="fdaac801-91d5-4d75-97fa-4994aae449b3" points="1946.28 1572 1524.44 1572 1061.11 1572 1251.11 1878 1757.03 1878 1946.28 1572"/>
  <path class="fdaac801-91d5-4d75-97fa-4994aae449b3" d="M1009,1549.58" transform="translate(101.11)"/>
  <path class="fdaac801-91d5-4d75-97fa-4994aae449b3" d="M1430,1185" transform="translate(101.11)"/>
  <polyline class="fdaac801-91d5-4d75-97fa-4994aae449b3" points="1504.11 1362.04 1624.69 1362.04 1745.28 1362.04 1504.11 1156 1504.11 1362.04 1504.11 1568.08"/>
  <polygon class="bca174a6-1b9f-46af-9706-18277573f75c" points="337.11 1803 366.5 1787.55 360.88 1820.28 384.66 1843.45 351.8 1848.22 337.11 1878 322.41 1848.22 289.56 1843.45 313.33 1820.28 307.72 1787.55 337.11 1803"/>
  <polygon class="bca174a6-1b9f-46af-9706-18277573f75c" points="262.11 1538 297.38 1519.46 290.64 1558.73 319.17 1586.54 279.74 1592.27 262.11 1628 244.47 1592.27 205.05 1586.54 233.58 1558.73 226.84 1519.46 262.11 1538"/>
  <polygon class="bca174a6-1b9f-46af-9706-18277573f75c" points="336.61 1214.5 377.75 1192.87 369.9 1238.68 403.18 1271.13 357.18 1277.82 336.61 1319.5 316.04 1277.82 270.04 1271.13 303.32 1238.68 295.46 1192.87 336.61 1214.5"/>
  <polygon class="bca174a6-1b9f-46af-9706-18277573f75c" points="241.61 912.5 288.63 887.78 279.65 940.14 317.69 977.22 265.12 984.86 241.61 1032.5 218.1 984.86 165.52 977.22 203.57 940.14 194.59 887.78 241.61 912.5"/>
  <polygon class="bca174a6-1b9f-46af-9706-18277573f75c" points="376.61 601.5 429.51 573.69 419.41 632.59 462.2 674.31 403.06 682.91 376.61 736.5 350.16 682.91 291.01 674.31 333.81 632.59 323.71 573.69 376.61 601.5"/>
  <polygon class="bca174a6-1b9f-46af-9706-18277573f75c" points="242.11 285 300.89 254.1 289.66 319.55 337.21 365.9 271.5 375.45 242.11 435 212.72 375.45 147 365.9 194.56 319.55 183.33 254.1 242.11 285"/>
  <polygon class="bca174a6-1b9f-46af-9706-18277573f75c" points="753.11 1625 782.5 1609.55 776.88 1642.28 800.66 1665.45 767.8 1670.22 753.11 1700 738.41 1670.22 705.56 1665.45 729.33 1642.28 723.72 1609.55 753.11 1625"/>
  <polygon class="bca174a6-1b9f-46af-9706-18277573f75c" points="678.11 1360 713.38 1341.46 706.64 1380.73 735.17 1408.54 695.74 1414.27 678.11 1450 660.48 1414.27 621.05 1408.54 649.58 1380.73 642.84 1341.46 678.11 1360"/>
  <polygon class="bca174a6-1b9f-46af-9706-18277573f75c" points="752.61 1036.5 793.75 1014.87 785.9 1060.68 819.18 1093.13 773.18 1099.82 752.61 1141.5 732.04 1099.82 686.03 1093.13 719.32 1060.68 711.46 1014.87 752.61 1036.5"/>
  <polygon class="bca174a6-1b9f-46af-9706-18277573f75c" points="657.61 734.5 704.63 709.78 695.65 762.14 733.69 799.22 681.12 806.86 657.61 854.5 634.1 806.86 581.52 799.22 619.57 762.14 610.59 709.78 657.61 734.5"/>
  <polygon class="bca174a6-1b9f-46af-9706-18277573f75c" points="792.61 423.5 845.51 395.69 835.41 454.59 878.2 496.31 819.06 504.91 792.61 558.5 766.16 504.91 707.01 496.31 749.81 454.59 739.71 395.69 792.61 423.5"/>
  <polygon class="bca174a6-1b9f-46af-9706-18277573f75c" points="658.11 107 716.89 76.1 705.66 141.55 753.22 187.9 687.5 197.45 658.11 257 628.72 197.45 563 187.9 610.56 141.55 599.33 76.1 658.11 107"/>
</svg>
